<?xml version="1.0" encoding="utf-8"?>
<!-- Generator: Adobe Illustrator 16.0.0, SVG Export Plug-In . SVG Version: 6.00 Build 0)  -->
<!DOCTYPE svg PUBLIC "-//W3C//DTD SVG 1.1//EN" "http://www.w3.org/Graphics/SVG/1.1/DTD/svg11.dtd">
<svg version="1.1" id="Layer_1" xmlns="http://www.w3.org/2000/svg" xmlns:xlink="http://www.w3.org/1999/xlink" x="0px" y="0px"
	 width="612px" height="228px" viewBox="0 0 612 228" enable-background="new 0 0 612 228" xml:space="preserve">
<path fill-rule="evenodd" clip-rule="evenodd" fill="#FFFFFF" d="M176.055,189.585c-24.23,25.546-68.441,36.639-107.525,20.493
	C28.566,193.569,2.416,150.945,6.167,108.393c4.035-45.769,35.741-75.792,61.057-84.577c-30.774,39.724-37.177,82.109-9.284,124.84
	C85.75,191.26,127.041,202.237,176.055,189.585z"/>
<path fill-rule="evenodd" clip-rule="evenodd" fill="#FFFFFF" d="M234.296,123.512c10.166-0.001,20.333,0.133,30.495-0.07
	c3.739-0.074,4.478,1.17,3.86,4.672c-1.098,6.224-1.881,12.516-2.483,18.809c-0.254,2.66-1.372,3.487-3.788,3.251
	c-0.66-0.064-1.333-0.009-1.999-0.006c-8.533,0.03-8.656,0.017-7.687-8.647c0.318-2.84-0.642-3.429-3.183-3.387
	c-9.012,0.15-7.906-0.748-8.876,7.255c-1.543,12.721-3.383,25.41-5.387,38.067c-0.573,3.621,1.008,4.028,3.734,3.698
	c3.38-0.41,4.282,0.808,3.688,4.227c-1.667,9.597-1.53,9.62-11.338,9.62c-7.333,0-14.668-0.128-21.996,0.06
	c-2.973,0.076-3.88-0.938-3.278-3.728c0.351-1.625,0.771-3.286,0.759-4.928c-0.029-3.922,1.435-5.94,5.642-5.257
	c2.419,0.393,3.435-0.589,3.774-3.202c1.803-13.863,3.862-27.693,5.768-41.545c0.25-1.813,1.152-4.711-2.214-4.084
	c-3.001,0.559-7.639-2.971-8.833,3.095c-0.562,2.854,0.393,7.143-2.155,8.211c-3.137,1.316-7.192,0.454-10.851,0.509
	c-2.374,0.036-2.103-1.637-1.895-3.131c0.961-6.926,2.082-13.832,2.902-20.774c0.361-3.055,2.39-2.698,4.344-2.702
	C213.632,123.5,223.964,123.513,234.296,123.512z"/>
<path fill-rule="evenodd" clip-rule="evenodd" fill="#FFFFFF" d="M226,94.036c-8.493,0-16.993-0.197-25.476,0.082
	c-4.33,0.143-5.315-1.431-4.177-5.281c0.419-1.419,0.6-2.957,0.598-4.44c-0.005-3.019,1.472-4.304,4.353-3.99
	c3.456,0.377,4.578-1.295,4.989-4.542c1.734-13.696,3.649-27.371,5.615-41.036c0.459-3.189,0.148-5.357-3.824-4.826
	c-2.792,0.374-3.561-1.009-3.133-3.513c0.111-0.653,0.077-1.33,0.136-1.993c0.7-7.855,0.702-7.854,8.383-7.854
	c8.327,0,16.655,0.105,24.978-0.066c2.981-0.062,3.947,0.894,3.25,3.755c-0.433,1.774-0.886,3.585-0.97,5.396
	c-0.15,3.234-1.354,4.899-4.863,4.294c-3.12-0.538-4.491,1.016-4.876,4.075c-1.728,13.697-3.465,27.396-5.458,41.057
	c-0.484,3.316,0.617,4.24,3.593,4.118c1.995-0.082,3.996-0.01,5.994-0.01c8.76,0.001,8.989,0.04,10.417-8.309
	c0.69-4.039,3.076-3.989,6.07-3.989c8.871,0.003,8.857-0.051,7.558,8.652c-0.638,4.275-1.456,8.543-1.757,12.845
	c-0.299,4.258-1.85,5.927-6.424,5.694C242.668,93.734,234.326,94.036,226,94.036z"/>
<path fill-rule="evenodd" clip-rule="evenodd" fill="#FFFFFF" d="M300.918,84.799c-3.937,5.416-7.895,9.016-13.596,10.352
	c-11.966,2.804-20.526-5.247-18.873-17.824c0.889-6.761,1.703-13.532,2.497-20.305c0.259-2.21,0.53-4.522-2.893-4.442
	c-2.127,0.049-2.351-1.364-2.177-3.053c0.153-1.49,0.266-2.987,0.328-4.484c0.17-4.112,1.591-6.381,6.401-5.862
	c4.61,0.496,9.33,0.322,13.977,0.045c4.353-0.259,4.963,1.617,4.345,5.412c-1.523,9.351-2.784,18.745-3.986,28.144
	c-0.277,2.168-1.136,4.973,1.755,6.127c2.917,1.165,5.119-0.57,6.948-2.674c5.36-6.164,7.229-13.729,8.483-21.513
	c0.582-3.612,1.281-7.236,1.445-10.877c0.164-3.616,1.521-5,5.199-4.623c3.132,0.32,6.337,0.246,9.484,0.014
	c3.38-0.249,3.925,1.262,3.466,4.184c-1.497,9.533-3.003,19.07-4.173,28.647c-0.418,3.427-3.107,8.605,4.269,8.392
	c1.137-0.033,0.965,1.166,0.895,1.936c-0.271,2.98-0.557,5.962-0.941,8.93c-0.222,1.707-1.326,2.539-3.059,2.715
	c-4.3,0.438-8.576,0.903-12.89-0.007C303.347,93.086,301.939,89.643,300.918,84.799z"/>
<path fill-rule="evenodd" clip-rule="evenodd" fill="#FFFFFF" d="M357.146,46.699c2.442-0.229,3.173-2.185,4.426-3.351
	c5.149-4.793,11.223-6.321,17.988-5.308c6.568,0.984,11.062,7.319,10.056,14.979c-0.93,7.069-2.616,14.045-4.096,21.034
	c-0.753,3.561-0.795,6.471,4.006,6.456c1.308-0.005,1.735,0.712,1.784,1.848c0.014,0.331,0.066,0.699-0.05,0.991
	c-1.421,3.588,2.258,9.354-4.331,10.708c-9.481,1.95-16.042-0.708-18.673-7.307c-1.672-4.195-1.411-8.45-0.486-12.759
	c1.081-5.036,2.354-10.057,2.989-15.153c0.522-4.189-1.935-5.682-5.46-3.366c-7.617,5.005-9.733,13.105-11.188,21.399
	c-0.774,4.416-1.346,8.882-1.721,13.35c-0.252,3.002-1.609,4.146-4.493,3.827c-0.822-0.092-1.664-0.014-2.496-0.013
	c-12.188,0.011-12.104,0.023-10.109-12.277c1.357-8.369,2.374-16.793,3.692-25.169c0.386-2.448,0.006-3.94-2.771-4.005
	c-2.32-0.055-2.514-1.483-2.43-3.401c0.419-9.601,0.688-9.897,10.298-9.897c2.996,0.001,6.018,0.243,8.983-0.059
	c4.226-0.429,5.565,1.023,4.114,5.062C356.936,44.973,357.146,45.818,357.146,46.699z"/>
<path fill-rule="evenodd" clip-rule="evenodd" fill="#FFFFFF" d="M383.879,185.539c0.672-6.214,1.501-13.146,2.138-20.095
	c0.312-3.392,0.025-6.603-4.854-5.902c-0.427,0.061-1.275-0.128-1.289-0.266c-0.389-3.85,0.749-7.55,1.193-11.322
	c0.286-2.433,2.385-1.901,3.898-2.133c16.689-2.556,21.568,2.319,19.266,18.845c-0.893,6.408-2.629,12.726-2.382,19.274
	c0.043,1.113-0.334,2.478,0.965,3.119c1.392,0.687,2.663,0.011,3.611-0.964c6.066-6.233,9.988-13.625,11.54-22.193
	c0.4-2.209-0.638-4.359-2.859-4.573c-3.281-0.314-3.281-1.944-2.62-4.309c0.044-0.159,0.024-0.345,0.096-0.487
	c1.584-3.203-1.813-9.104,5.147-9.403c8.437-0.361,14.393,3.138,16.102,9.665c0.943,3.602,0.92,7.306,0.038,10.882
	c-3.113,12.63-9.263,23.435-19.685,31.508c-3.889,3.014-8.3,4.867-13.253,5.278C389.997,203.371,383.531,197.237,383.879,185.539z"
	/>
<path fill-rule="evenodd" clip-rule="evenodd" fill="#FFFFFF" d="M61.179,76.261c7.618-0.865,13.881-1.736,20.174-2.22
	c2.853-0.219,4.471-1.259,5.617-3.904c2.619-6.043,5.535-11.957,8.71-18.736c2.906,6.305,5.695,11.758,7.931,17.429
	c1.399,3.551,3.274,5.159,7.252,5.329c6.096,0.26,12.159,1.303,19.295,2.138c-5.425,5.034-10.118,9.626-15.088,13.894
	c-2.329,1.999-2.941,3.882-2.182,6.864c1.586,6.234,2.75,12.575,4.305,19.896c-6.282-3.499-11.84-6.354-17.133-9.636
	c-3.034-1.881-5.423-2.075-8.541-0.081c-5.263,3.366-10.851,6.224-17.118,9.755c1.46-7.603,2.503-14.074,4.018-20.435
	c0.646-2.709-0.041-4.275-1.992-6.019C71.52,86.151,66.803,81.555,61.179,76.261z"/>
<path fill-rule="evenodd" clip-rule="evenodd" fill="#FFFFFF" d="M577.975,202.528c-4.845-0.062-9.642-0.382-14.154-2.412
	c-2.643-1.189-4.941-2.773-6.224-5.482c-2.354-4.976-0.814-8.148,4.421-9.129c2.287-0.429,4.591-0.774,6.877-1.209
	c2.23-0.424,3.71-0.678,4.588,2.499c0.963,3.483,8.548,4.206,10.832,1.353c1.924-2.402,0.785-4.549-1.463-5.829
	c-2.873-1.637-5.985-2.854-9.005-4.23c-9.315-4.241-12.75-9.393-11.955-17.958c0.668-7.2,6.066-12.74,14.913-14.661
	c7.439-1.616,14.886-1.29,22.058,1.565c3.168,1.262,5.854,3.179,7.188,6.507c2.039,5.085,0.758,7.379-4.6,8.28
	c-2.295,0.387-4.6,0.725-6.891,1.135c-2.7,0.484-5.152,1.105-5.646-3.059c-0.271-2.288-2.749-2.718-4.812-2.545
	c-1.904,0.16-3.56,1.006-4.008,3.144c-0.479,2.287,0.484,3.935,2.542,4.851c3.185,1.419,6.468,2.62,9.63,4.083
	c8.263,3.823,11.892,9.448,11.146,17.054c-0.733,7.501-5.495,12.491-14.063,14.829C585.615,202.331,581.807,202.484,577.975,202.528
	z"/>
<path fill-rule="evenodd" clip-rule="evenodd" fill="#FFFFFF" d="M510.173,116.839c12.111-0.003,11.97-0.024,10.18,12.208
	c-2.524,17.26-4.854,34.549-7.176,51.838c-0.483,3.596-0.929,7.52,4.937,6.35c0.764-0.152,1.43,0.163,1.359,0.938
	c-0.346,3.801-0.163,7.816-1.406,11.315c-0.976,2.749-4.703,1.903-7.202,2.135c-10.938,1.014-16.96-4.602-15.791-15.625
	c1.751-16.513,4.283-32.943,6.43-49.416c0.406-3.117,2.565-7.401-3.867-6.692c-1.079,0.118-1.296-0.73-1.145-1.678
	c0.522-3.282,1.01-6.569,1.546-9.85c0.32-1.962,1.943-1.464,3.156-1.495C504.185,116.789,507.18,116.842,510.173,116.839z"/>
<path fill-rule="evenodd" clip-rule="evenodd" fill="#FFFFFF" d="M543.917,116.836c3.108,0.428,8.402-1.729,10.246,0.928
	c1.618,2.333-0.42,7.248-0.936,11.009c-2.33,16.972-4.786,33.927-6.969,50.917c-0.459,3.576-2.257,8.822,5.083,7.556
	c0.7-0.12,1.054,0.636,0.974,1.403c-0.363,3.471-0.675,6.948-1.119,10.408c-0.072,0.557-0.636,1.374-1.123,1.504
	c-5.584,1.485-11.211,1.941-16.527-0.828c-4.296-2.238-5.895-6.212-5.685-10.859c0.579-12.818,3.161-25.401,4.649-38.115
	c0.656-5.614,1.53-11.203,2.343-16.799c0.342-2.351,0.506-4.432-2.953-3.978c-2.253,0.295-2.653-0.673-2.399-2.916
	c1.157-10.22,1.065-10.229,11.261-10.229C541.594,116.836,542.427,116.836,543.917,116.836z"/>
<path fill-rule="evenodd" clip-rule="evenodd" fill="#FFFFFF" d="M292.818,155.817c4.976-9.219,10.225-12.349,17.993-10.91
	c3.87,0.716,5.733,1.995,3.225,6.208c-2.457,4.127-4.365,8.581-6.534,12.881c-0.66,1.31-1.021,2.428-3.26,1.82
	c-6.041-1.639-8.703-0.187-11.484,5.514c-3.125,6.4-3.503,13.459-4.667,20.312c-1.587,9.343-1.493,9.358-11.134,9.358
	c-8.475,0-8.417,0.009-7.215-8.46c1.376-9.705,2.575-19.435,3.99-29.134c0.385-2.638,0.094-4.251-3.077-3.936
	c-0.628,0.062-1.777-0.066-1.862-0.352c-1.074-3.609,0.475-7.072,0.758-10.618c0.182-2.28,1.812-2.366,3.598-2.349
	c4.989,0.049,9.997,0.282,14.961-0.069c4.084-0.289,5.019,1.236,4.009,4.846c-0.265,0.945-0.213,1.979-0.307,2.972
	C291.73,154.759,290.74,156.093,292.818,155.817z"/>
<path fill-rule="evenodd" clip-rule="evenodd" fill="#FFFFFF" d="M141.306,90.955c4.429,0.659,8.876,1.216,13.28,2.012
	c2.924,0.529,4.985-0.146,6.794-2.688c2.674-3.758,5.755-7.225,9.319-11.625c0.917,5.286,1.828,9.589,2.365,13.938
	c0.43,3.479,1.71,5.65,5.394,6.678c4.244,1.185,8.271,3.145,13.11,5.051c-4.895,2.572-8.937,4.891-13.149,6.84
	c-2.645,1.224-3.527,2.94-3.596,5.786c-0.115,4.76-0.708,9.509-1.186,15.307c-3.962-3.777-7.444-6.784-10.533-10.15
	c-2.102-2.291-4.188-2.692-7.058-1.918c-4.447,1.2-8.815,2.975-15.051,2.841c10.333-11.137,9.357-21.54-1.388-31.466
	C140.174,91.357,140.74,91.156,141.306,90.955z"/>
<path fill-rule="evenodd" clip-rule="evenodd" fill="#FFFFFF" d="M104.254,145.562c11.192-1.208,16.262-7.068,15.57-18.397
	c4.497,3.312,5.798,8.432,9.523,10.434c3.97,2.134,8.675-1.136,13.505-0.46c-1.42,4.389-5.953,7.212-6.551,11.327
	c-0.63,4.332,3.363,8.044,4.575,12.717c-3.362,0.189-6.209-1.222-9.02-2.244c-3.073-1.118-5.25-0.728-7.423,1.768
	c-1.932,2.217-4.303,4.051-8.025,7.477C119.178,156.189,115.252,149.117,104.254,145.562z"/>
<path fill-rule="evenodd" clip-rule="evenodd" fill="#FFFFFF" d="M370.271,187.248c-6.715,0.997-4.453-4.01-4.117-6.813
	c1.226-10.221,2.933-20.382,4.387-30.576c0.184-1.281,1.24-2.896-1.104-3.645c-4.758-1.519-11.702,0.485-14.645,4.87
	c-3.676-6.054-8.985-6.985-14.988-6.25c-6.065,0.743-11.048,3.575-15.077,7.998c-8.69,9.54-12.075,20.923-10.552,33.605
	c0.84,6.988,4.244,12.747,11.323,15.12c7.293,2.446,13.759,0.432,19.205-4.889c1.368-1.336,2.576-2.836,3.96-4.376
	c2.315,7.509,5.586,9.826,13.226,9.497c1.488-0.064,2.966-0.37,4.445-0.585c1.782-0.26,3.866-0.159,4.067-2.713
	c0.286-3.621,0.494-7.248,0.686-10.875C371.092,187.501,370.53,187.209,370.271,187.248z M343.402,185.673
	c-1.934,2.094-4.312,4.013-7.408,3.06c-3.075-0.947-3.314-3.91-3.521-6.56c-0.502-6.423,0.675-12.576,3.791-18.222
	c2.035-3.687,5.129-6.57,9.627-5.55c4.744,1.076,3.975,5.424,4.18,8.912C349.91,174.262,348.138,180.543,343.402,185.673z"/>
<path fill-rule="evenodd" clip-rule="evenodd" fill="#FFFFFF" d="M455.094,82.477c-0.088-0.763,0.193-2.062-0.878-2.012
	c-6.767,0.312-4.395-4.597-4.053-7.621c1.118-9.904,2.684-19.759,4.095-29.63c0.233-1.626,0.923-3.894-1.561-3.792
	c-4.979,0.204-10.983-2.479-13.957,4.364c-5.166-6.86-12.145-7.4-19.943-4.64c-14.821,5.245-24.744,26.604-20.228,42.786
	c3.771,13.512,17.041,17.95,28.106,9.314c1.905-1.487,3.432-3.46,5.672-5.763c1.43,6.663,5.469,8.836,11.249,9.149
	C452.748,95.129,456.155,91.717,455.094,82.477z M433.935,60.082c-0.324,6.485-1.524,12.866-6.134,17.956
	c-2.165,2.391-4.647,4.673-8.138,3.479c-3.604-1.234-2.981-4.717-3.188-7.629c-0.046-0.659-0.007-1.324-0.007-1.987
	c0.034-5.728,0.987-11.221,4.402-15.999c2.257-3.157,5.224-5.436,9.265-4.165C434.12,52.99,434.093,56.932,433.935,60.082z"/>
<path fill-rule="evenodd" clip-rule="evenodd" fill="#FFFFFF" d="M485.357,187.587c-3.938-1.742-8.006-3.27-12.147-4.44
	c-2.295-0.649-2.445,2.299-3.824,3.362c-1.352,1.043-2.726,1.958-4.372,2.29c-3.769,0.761-6.66-0.396-7.844-4.281
	c-1.312-4.308,2.567-3.856,4.72-4.708c6.948-2.752,14.229-4.742,20.493-9.027c5.179-3.544,7.437-8.491,6.295-14.672
	c-1.134-6.137-5.399-9.374-11.179-10.736c-5.269-1.243-10.589-1.079-15.829,0.26c-14.285,3.651-22.803,16.171-22.864,33.506
	c-0.046,12.786,4.264,19.818,14.11,22.364c6.565,1.696,13.211,1.528,19.71-0.589c5.477-1.783,9.51-5.383,12.366-10.318
	C485.523,189.681,486.793,188.223,485.357,187.587z M464.877,158.114c2.058-0.788,4.786-1.397,6.113,1.324
	c1.312,2.69,0.025,4.977-2.432,6.189c-3.372,1.665-6.942,2.928-11.576,4.836C458.438,164.595,459.836,160.045,464.877,158.114z"/>
</svg>
